<svg width="268" height="211" viewBox="0 0 268 211" fill="none" xmlns="http://www.w3.org/2000/svg">
<g id="Download">
<g id="Syncronize">
<path id="Vector" d="M118.375 205.437C168.848 205.437 209.699 164.37 209.699 113.701C209.699 63.0317 168.848 22.1123 118.375 22.1123C67.9032 22.1123 27.0518 63.1794 27.0518 113.849C27.0518 164.665 68.0512 205.437 118.375 205.437Z" fill="#EAEEF9"/>
<path id="Vector_2" d="M163.37 205.733C149.457 206.176 132.732 205.733 120.891 205.585C109.198 206.028 92.3243 206.176 78.4111 205.733C92.1763 197.903 97.0607 183.279 97.6528 173.677H143.833C144.869 183.131 149.753 197.756 163.37 205.733Z" fill="#D5DDEA"/>
<g id="Vector_3" filter="url(#filter0_d_1311_29024)">
<path d="M208.07 51.361V172.051C208.07 175.153 205.702 177.369 203.038 177.369H39.632C36.8198 177.369 34.5996 175.006 34.5996 172.051V51.361C34.5996 48.5543 36.9678 46.043 39.632 46.043H202.742C205.85 46.043 208.07 48.5543 208.07 51.361Z" fill="url(#paint0_linear_1311_29024)"/>
</g>
<path id="Vector_4" d="M208.07 51.361V155.211H34.5996V51.361C34.5996 48.5543 36.9678 46.043 39.632 46.043H202.742C205.85 46.043 208.07 48.5543 208.07 51.361Z" fill="#989FB0"/>
<path id="Vector_5" d="M202.038 52.3887H41.0117V148.015H202.24V52.3887H202.038Z" fill="white"/>
<path id="Vector_6" d="M121.039 169.984C123.408 169.984 125.332 168.211 125.332 165.7C125.332 163.336 123.556 161.416 121.039 161.416C118.671 161.416 116.747 163.189 116.747 165.7C116.747 168.211 118.523 169.984 121.039 169.984Z" fill="#C2C8D6"/>
<path id="Vector_7" d="M1 205.881H234.859" stroke="#C2C8D6" stroke-width="2" stroke-miterlimit="10" stroke-linecap="round" stroke-linejoin="round"/>
<path id="Vector_8" d="M16.0959 102.917C19.5001 102.917 22.1644 100.258 22.1644 96.8604C22.1644 93.4627 19.5001 90.8037 16.0959 90.8037C12.6916 90.8037 10.0273 93.4627 10.0273 96.8604C10.0273 100.11 12.8396 102.917 16.0959 102.917Z" fill="#EAEEF9"/>
<path id="Vector_9" d="M10.0291 83.2696C12.2493 83.2696 14.1735 81.3492 14.1735 79.1333C14.1735 76.9175 12.2493 74.9971 10.0291 74.9971C7.80893 74.9971 5.88477 76.9175 5.88477 79.1333C5.88477 81.3492 7.80893 83.2696 10.0291 83.2696Z" fill="#EAEEF9"/>
<path id="Vector_10" d="M183.352 34.8165C185.573 34.8165 187.497 32.8961 187.497 30.6802C187.497 28.4644 185.573 26.5439 183.352 26.5439C181.132 26.5439 179.208 28.4644 179.208 30.6802C179.208 32.8961 180.984 34.8165 183.352 34.8165Z" fill="#EAEEF9"/>
<path id="Vector_11" d="M227.162 118.133C231.455 118.133 234.859 114.735 234.859 110.451C234.859 106.167 231.455 102.77 227.162 102.77C222.87 102.77 219.466 106.167 219.466 110.451C219.466 114.735 222.87 118.133 227.162 118.133Z" fill="#EAEEF9"/>
</g>
<g id="Group 932">
<g id="Group">
<path id="Vector_12" d="M148.762 108.161C148.125 110.921 147.17 113.575 146.002 116.017C142.923 121.751 138.357 126.423 132.624 129.289C126.678 132.368 119.671 133.43 112.557 132.05C95.9939 128.546 85.2703 112.408 88.7741 95.7382C92.2778 79.0689 108.31 68.3453 124.979 71.8491C130.925 73.1231 136.128 75.9898 140.481 80.1306C147.701 87.5628 150.78 98.074 148.762 108.161Z" fill="url(#paint1_linear_1311_29024)"/>
</g>
<g id="Group_2">
<path id="Vector_13" d="M119.326 84.457C116.459 84.457 114.229 86.899 114.442 89.7657L116.034 106.966C116.141 108.665 117.627 110.045 119.326 110.045C121.025 110.045 122.511 108.665 122.617 106.966L124.21 89.7657C124.422 86.7929 122.192 84.457 119.326 84.457Z" fill="white"/>
<path id="Vector_14" d="M119.327 113.23C117.204 113.23 115.505 114.929 115.505 117.053C115.505 119.176 117.204 120.875 119.327 120.875C121.451 120.875 123.149 119.176 123.149 117.053C123.149 114.929 121.451 113.23 119.327 113.23Z" fill="white"/>
</g>
</g>
<g id="416">
<g id="Group 645">
<g id="Group_3">
<g id="Group 675">
<g id="Group_4">
<g id="Vector_15" filter="url(#filter1_d_1311_29024)">
<path d="M245.431 61.5254C245.431 72.4472 236.605 81.2796 225.596 81.2796C225.406 81.2796 223.793 81.2796 211.93 81.2796C203.673 81.2796 190.481 81.2796 169.413 81.2796H159.353C146.161 81.5645 135.627 71.0226 135.627 58.2963C135.627 45.475 146.256 34.8381 159.638 35.5029C171.121 -0.396591 223.698 4.63694 228.158 41.7711C238.028 43.0058 245.431 51.3633 245.431 61.5254Z" fill="url(#paint2_linear_1311_29024)"/>
</g>
</g>
<path id="Vector_16" d="M225.596 81.28C236.51 81.28 245.431 72.4475 245.431 61.5257C245.431 50.6039 236.51 41.7715 225.596 41.7715C214.682 41.7715 205.761 50.6039 205.761 61.5257C205.761 72.4475 214.682 81.28 225.596 81.28Z" fill="url(#paint3_linear_1311_29024)"/>
<path id="Vector_17" d="M193.233 81.4695C212.688 81.4695 228.537 65.7041 228.537 46.2347C228.537 26.7654 212.688 11 193.233 11C173.778 11 157.929 26.7654 157.929 46.2347C157.929 65.7041 173.683 81.4695 193.233 81.4695Z" fill="url(#paint4_linear_1311_29024)"/>
</g>
</g>
</g>
</g>
</g>
<defs>
<filter id="filter0_d_1311_29024" x="12.5996" y="35.043" width="217.471" height="175.326" filterUnits="userSpaceOnUse" color-interpolation-filters="sRGB">
<feFlood flood-opacity="0" result="BackgroundImageFix"/>
<feColorMatrix in="SourceAlpha" type="matrix" values="0 0 0 0 0 0 0 0 0 0 0 0 0 0 0 0 0 0 127 0" result="hardAlpha"/>
<feOffset dy="11"/>
<feGaussianBlur stdDeviation="11"/>
<feColorMatrix type="matrix" values="0 0 0 0 0.397708 0 0 0 0 0.47749 0 0 0 0 0.575 0 0 0 0.27 0"/>
<feBlend mode="normal" in2="BackgroundImageFix" result="effect1_dropShadow_1311_29024"/>
<feBlend mode="normal" in="SourceGraphic" in2="effect1_dropShadow_1311_29024" result="shape"/>
</filter>
<filter id="filter1_d_1311_29024" x="113.627" y="0.0859375" width="153.804" height="114.199" filterUnits="userSpaceOnUse" color-interpolation-filters="sRGB">
<feFlood flood-opacity="0" result="BackgroundImageFix"/>
<feColorMatrix in="SourceAlpha" type="matrix" values="0 0 0 0 0 0 0 0 0 0 0 0 0 0 0 0 0 0 127 0" result="hardAlpha"/>
<feOffset dy="11"/>
<feGaussianBlur stdDeviation="11"/>
<feColorMatrix type="matrix" values="0 0 0 0 0.397708 0 0 0 0 0.47749 0 0 0 0 0.575 0 0 0 0.27 0"/>
<feBlend mode="normal" in2="BackgroundImageFix" result="effect1_dropShadow_1311_29024"/>
<feBlend mode="normal" in="SourceGraphic" in2="effect1_dropShadow_1311_29024" result="shape"/>
</filter>
<linearGradient id="paint0_linear_1311_29024" x1="121.278" y1="43.0053" x2="121.278" y2="178.785" gradientUnits="userSpaceOnUse">
<stop stop-color="#FDFEFF"/>
<stop offset="0.9964" stop-color="#ECF0F5"/>
</linearGradient>
<linearGradient id="paint1_linear_1311_29024" x1="88.0757" y1="101.907" x2="149.349" y2="101.907" gradientUnits="userSpaceOnUse">
<stop stop-color="#B0BACC"/>
<stop offset="1" stop-color="#969EAE"/>
</linearGradient>
<linearGradient id="paint2_linear_1311_29024" x1="190.529" y1="40.095" x2="190.493" y2="82.042" gradientUnits="userSpaceOnUse">
<stop stop-color="white"/>
<stop offset="0.9964" stop-color="#ECF0F5"/>
</linearGradient>
<linearGradient id="paint3_linear_1311_29024" x1="203.65" y1="37.5184" x2="221.247" y2="56.7507" gradientUnits="userSpaceOnUse">
<stop stop-color="#BCCBE1"/>
<stop offset="0.9942" stop-color="white" stop-opacity="0"/>
</linearGradient>
<linearGradient id="paint4_linear_1311_29024" x1="154.623" y1="30.0664" x2="182.341" y2="40.9057" gradientUnits="userSpaceOnUse">
<stop stop-color="#E2E8F0"/>
<stop offset="0.9942" stop-color="white" stop-opacity="0"/>
</linearGradient>
</defs>
</svg>
