<svg width="21" height="18" viewBox="0 0 21 18" fill="none" xmlns="http://www.w3.org/2000/svg">
<g id="Group">
<path id="Vector" d="M17.1636 5.41314C16.2393 1.73085 12.5049 -0.504924 8.82253 0.419428C5.94488 1.14177 3.85538 3.62888 3.64009 6.58801C1.59684 6.92497 0.213591 8.85448 0.550546 10.8977C0.850084 12.7142 2.42405 14.0445 4.26502 14.0372H6.76475V12.7873H4.26502C2.88447 12.7873 1.7653 11.6682 1.7653 10.2876C1.7653 8.90705 2.88447 7.78788 4.26502 7.78788C4.61018 7.78788 4.88995 7.50811 4.88995 7.16295C4.88683 4.05669 7.40245 1.53602 10.5087 1.53294C13.1976 1.53024 15.5123 3.43121 16.0325 6.06932C16.0575 6.19778 16.1223 6.31514 16.2176 6.40484C16.3129 6.49454 16.4339 6.55205 16.5637 6.56926C18.2722 6.81256 19.4599 8.39477 19.2166 10.1032C18.9982 11.6373 17.6883 12.7796 16.1387 12.7873H14.2639V14.0372H16.1387C18.5547 14.0299 20.5073 12.0654 20.5 9.64944C20.4939 7.63829 19.1173 5.89043 17.1636 5.41314Z" fill="#334155"/>
<path id="Vector_2" d="M11.1402 15.6552V9.66211H9.89037V15.6552L8.45928 14.2241L7.57812 15.1053L10.0779 17.605C10.3216 17.8473 10.7152 17.8473 10.959 17.605L13.4587 15.1053L12.5776 14.2241L11.1402 15.6552Z" fill="#334155"/>
</g>
</svg>
