<svg width="21" height="16" viewBox="0 0 21 16" fill="none" xmlns="http://www.w3.org/2000/svg">
<g id="Group">
<path id="Vector" d="M17.1636 5.35263C16.2393 1.6703 12.5049 -0.565471 8.82253 0.358881C5.94488 1.08126 3.85538 3.56837 3.64009 6.52746C1.59684 6.86442 0.213591 8.79394 0.550546 10.8372C0.850084 12.6537 2.42405 13.984 4.26502 13.9767H7.38968V12.7268H4.26502C2.88447 12.7268 1.7653 11.6076 1.7653 10.2271C1.7653 8.84651 2.88447 7.72733 4.26502 7.72733C4.61018 7.72733 4.88995 7.44756 4.88995 7.1024C4.88683 3.99614 7.40245 1.47548 10.5087 1.47239C13.1976 1.4697 15.5123 3.37066 16.0325 6.00877C16.0575 6.13723 16.1223 6.25459 16.2176 6.34429C16.3129 6.43399 16.4339 6.4915 16.5637 6.50872C18.2722 6.75201 19.4599 8.33422 19.2166 10.0427C18.9982 11.5768 17.6883 12.7191 16.1387 12.7268H13.639V13.9767H16.1387C18.5547 13.9693 20.5073 12.0049 20.5 9.58889C20.4939 7.57778 19.1173 5.82988 17.1636 5.35263Z" fill="#334155"/>
<path id="Vector_2" d="M10.07 7.9083L7.57031 10.408L8.45147 11.2892L9.88881 9.85809V15.8512H11.1387V9.85809L12.5698 11.2892L13.4509 10.408L10.9512 7.9083C10.7074 7.66598 10.3138 7.66598 10.07 7.9083Z" fill="#334155"/>
</g>
</svg>
