<svg width="20" height="20" viewBox="0 0 20 20" fill="none" xmlns="http://www.w3.org/2000/svg">
<g id="vuesax/outline/more">
<g id="more">
<path id="Vector" d="M4.16691 12.2917C2.90024 12.2917 1.87524 11.2667 1.87524 10C1.87524 8.73337 2.90024 7.70837 4.16691 7.70837C5.43358 7.70837 6.45858 8.73337 6.45858 10C6.45858 11.2667 5.43358 12.2917 4.16691 12.2917ZM4.16691 8.95837C3.59191 8.95837 3.12524 9.42504 3.12524 10C3.12524 10.575 3.59191 11.0417 4.16691 11.0417C4.74191 11.0417 5.20858 10.575 5.20858 10C5.20858 9.42504 4.74191 8.95837 4.16691 8.95837Z" fill="#475569"/>
<path id="Vector_2" d="M15.8337 12.2917C14.567 12.2917 13.542 11.2667 13.542 10C13.542 8.73337 14.567 7.70837 15.8337 7.70837C17.1003 7.70837 18.1253 8.73337 18.1253 10C18.1253 11.2667 17.1003 12.2917 15.8337 12.2917ZM15.8337 8.95837C15.2587 8.95837 14.792 9.42504 14.792 10C14.792 10.575 15.2587 11.0417 15.8337 11.0417C16.4087 11.0417 16.8753 10.575 16.8753 10C16.8753 9.42504 16.4087 8.95837 15.8337 8.95837Z" fill="#475569"/>
<path id="Vector_3" d="M10.0002 12.2917C8.7335 12.2917 7.7085 11.2667 7.7085 10C7.7085 8.73337 8.7335 7.70837 10.0002 7.70837C11.2668 7.70837 12.2918 8.73337 12.2918 10C12.2918 11.2667 11.2668 12.2917 10.0002 12.2917ZM10.0002 8.95837C9.42516 8.95837 8.9585 9.42504 8.9585 10C8.9585 10.575 9.42516 11.0417 10.0002 11.0417C10.5752 11.0417 11.0418 10.575 11.0418 10C11.0418 9.42504 10.5752 8.95837 10.0002 8.95837Z" fill="#475569"/>
</g>
</g>
</svg>
